<svg width="232" height="89" viewBox="0 0 232 89" fill="none" xmlns="http://www.w3.org/2000/svg">
<path d="M7.68 37.48C6.592 37.48 5.536 37.256 4.512 36.808C3.50933 36.36 2.496 35.72 1.472 34.888C1.42933 34.8453 1.376 34.824 1.312 34.824C1.14133 34.824 0.96 34.92 0.768 35.112L0.32 34.728L3.52 31.08L3.968 31.496C3.88267 31.6027 3.808 31.7307 3.744 31.88C3.70133 32.0293 3.72267 32.1467 3.808 32.232C4.512 32.872 5.16267 33.352 5.76 33.672C6.37867 33.9707 7.01867 34.12 7.68 34.12C9.32267 34.12 10.144 33.576 10.144 32.488C10.144 31.9973 9.888 31.624 9.376 31.368C8.88533 31.0907 8.05333 30.792 6.88 30.472C5.36533 30.0667 4.26667 29.544 3.584 28.904C2.90133 28.2427 2.56 27.3467 2.56 26.216C2.56 24.872 2.99733 23.784 3.872 22.952C4.74667 22.0987 5.94133 21.672 7.456 21.672C8.224 21.672 8.91733 21.7893 9.536 22.024C10.1547 22.2587 10.9013 22.6747 11.776 23.272C11.7973 23.2933 11.84 23.304 11.904 23.304C12.0107 23.304 12.1173 23.272 12.224 23.208C12.3307 23.144 12.4053 23.08 12.448 23.016L12.928 23.432L10.048 26.696L9.6 26.312C9.68533 26.2267 9.73867 26.12 9.76 25.992C9.80267 25.8427 9.78133 25.7253 9.696 25.64C9.312 25.3413 8.93867 25.1173 8.576 24.968C8.23467 24.8187 7.85067 24.744 7.424 24.744C6.976 24.744 6.624 24.8293 6.368 25C6.112 25.1707 5.984 25.4267 5.984 25.768C5.984 26.0453 6.05867 26.2693 6.208 26.44C6.35733 26.6107 6.624 26.7813 7.008 26.952C7.41333 27.1227 8.02133 27.336 8.832 27.592C10.3253 28.04 11.4987 28.6693 12.352 29.48C13.2053 30.2693 13.632 31.2507 13.632 32.424C13.632 34.152 13.088 35.432 12 36.264C10.912 37.0747 9.472 37.48 7.68 37.48ZM23.2055 37.672C21.8402 37.672 20.5708 37.3307 19.3975 36.648C18.2242 35.9653 17.2855 35.0373 16.5815 33.864C15.8988 32.6907 15.5575 31.4107 15.5575 30.024C15.5575 28.3813 15.8988 26.9413 16.5815 25.704C17.2855 24.4453 18.2242 23.4853 19.3975 22.824C20.5708 22.1413 21.8615 21.8 23.2695 21.8C24.2722 21.8 25.1255 21.9173 25.8295 22.152C26.5548 22.3867 27.1308 22.6747 27.5575 23.016C28.0055 23.336 28.5602 23.7947 29.2215 24.392C29.2642 24.4347 29.3175 24.456 29.3815 24.456C29.4668 24.456 29.5628 24.424 29.6695 24.36C29.7975 24.296 29.8935 24.232 29.9575 24.168L30.3735 24.616L26.9175 27.816L26.5015 27.368C26.6082 27.2827 26.6935 27.1653 26.7575 27.016C26.8428 26.8453 26.8535 26.7173 26.7895 26.632C26.0215 25.6933 24.9655 25.224 23.6215 25.224C22.4055 25.224 21.3815 25.6293 20.5495 26.44C19.7388 27.2507 19.3335 28.3067 19.3335 29.608C19.3335 30.952 19.7282 32.0293 20.5175 32.84C21.3068 33.6507 22.3415 34.056 23.6215 34.056C24.2615 34.056 24.7842 33.9813 25.1895 33.832C25.5948 33.6613 26.0535 33.352 26.5655 32.904C26.6082 32.8613 26.6295 32.808 26.6295 32.744C26.6295 32.616 26.5548 32.4773 26.4055 32.328L26.7895 31.848L30.2455 34.728L29.8615 35.176C29.5202 34.984 29.2855 34.952 29.1575 35.08C28.3682 35.9547 27.5362 36.6053 26.6615 37.032C25.8082 37.4587 24.6562 37.672 23.2055 37.672ZM48.1878 36.04C48.1878 36.1467 48.2624 36.232 48.4118 36.296C48.5824 36.36 48.7531 36.392 48.9237 36.392V37H43.2918V36.392C43.4624 36.392 43.6224 36.36 43.7718 36.296C43.9424 36.232 44.0278 36.1467 44.0278 36.04V29.384C44.0278 28.296 43.7611 27.368 43.2278 26.6C42.6944 25.8107 41.8944 25.416 40.8278 25.416C39.7398 25.416 38.8331 25.7787 38.1078 26.504C37.3824 27.2293 37.0198 28.2747 37.0198 29.64V36.04C37.0198 36.1467 37.0944 36.232 37.2438 36.296C37.4144 36.36 37.5744 36.392 37.7238 36.392V37H32.3158V36.392C32.4651 36.392 32.6144 36.36 32.7638 36.296C32.9344 36.232 33.0198 36.1467 33.0198 36.04V13.96C33.0198 13.8533 32.9344 13.768 32.7638 13.704C32.6144 13.64 32.4651 13.608 32.3158 13.608V13H37.7238V13.608C37.5744 13.608 37.4144 13.64 37.2438 13.704C37.0944 13.768 37.0198 13.8533 37.0198 13.96V23.72C37.5744 23.1867 38.2464 22.76 39.0358 22.44C39.8464 22.12 40.6571 21.96 41.4678 21.96C42.8544 21.96 44.0491 22.248 45.0518 22.824C46.0758 23.4 46.8544 24.1787 47.3878 25.16C47.9211 26.12 48.1878 27.1973 48.1878 28.392V36.04ZM59.5263 37.384C57.9476 37.384 56.5503 37.0533 55.3343 36.392C54.1396 35.7093 53.2009 34.7813 52.5182 33.608C51.8569 32.4347 51.5263 31.112 51.5263 29.64C51.5263 28.1893 51.8569 26.8667 52.5182 25.672C53.2009 24.4773 54.1503 23.5387 55.3663 22.856C56.5823 22.152 57.9689 21.8 59.5263 21.8C61.0196 21.8 62.3743 22.1413 63.5903 22.824C64.8063 23.4853 65.7663 24.4133 66.4703 25.608C67.1743 26.7813 67.5263 28.1253 67.5263 29.64C67.5263 30.9627 67.2063 32.2213 66.5662 33.416C65.9476 34.5893 65.0303 35.5493 63.8143 36.296C62.5983 37.0213 61.1689 37.384 59.5263 37.384ZM59.5263 33.704C60.7849 33.704 61.7983 33.3413 62.5663 32.616C63.3556 31.8693 63.7503 30.9093 63.7503 29.736C63.7503 28.52 63.3556 27.5173 62.5663 26.728C61.7983 25.9387 60.7849 25.544 59.5263 25.544C58.3529 25.544 57.3716 25.9387 56.5823 26.728C55.7929 27.496 55.3983 28.4667 55.3983 29.64C55.3983 30.8773 55.7929 31.8693 56.5823 32.616C57.3716 33.3413 58.3529 33.704 59.5263 33.704ZM77.7763 37.384C76.1976 37.384 74.8003 37.0533 73.5843 36.392C72.3896 35.7093 71.4509 34.7813 70.7682 33.608C70.1069 32.4347 69.7763 31.112 69.7763 29.64C69.7763 28.1893 70.1069 26.8667 70.7682 25.672C71.4509 24.4773 72.4003 23.5387 73.6163 22.856C74.8323 22.152 76.2189 21.8 77.7763 21.8C79.2696 21.8 80.6243 22.1413 81.8403 22.824C83.0563 23.4853 84.0163 24.4133 84.7203 25.608C85.4243 26.7813 85.7763 28.1253 85.7763 29.64C85.7763 30.9627 85.4563 32.2213 84.8162 33.416C84.1976 34.5893 83.2803 35.5493 82.0643 36.296C80.8483 37.0213 79.4189 37.384 77.7763 37.384ZM77.7763 33.704C79.0349 33.704 80.0483 33.3413 80.8163 32.616C81.6056 31.8693 82.0003 30.9093 82.0003 29.736C82.0003 28.52 81.6056 27.5173 80.8163 26.728C80.0483 25.9387 79.0349 25.544 77.7763 25.544C76.6029 25.544 75.6216 25.9387 74.8323 26.728C74.0429 27.496 73.6483 28.4667 73.6483 29.64C73.6483 30.8773 74.0429 31.8693 74.8323 32.616C75.6216 33.3413 76.6029 33.704 77.7763 33.704ZM89.1143 13.96C89.1143 13.8533 89.0289 13.768 88.8583 13.704C88.7089 13.64 88.5489 13.608 88.3783 13.608V13H94.0103V13.608C93.8396 13.608 93.6689 13.64 93.4983 13.704C93.3489 13.768 93.2743 13.8533 93.2743 13.96V36.04C93.2743 36.1467 93.3489 36.232 93.4983 36.296C93.6689 36.36 93.8396 36.392 94.0103 36.392V37H88.3783V36.392C88.5489 36.392 88.7089 36.36 88.8583 36.296C89.0289 36.232 89.1143 36.1467 89.1143 36.04V13.96ZM115.757 36.168C115.842 36.3173 116.13 36.392 116.621 36.392V37H110.125V36.392C110.423 36.392 110.626 36.3387 110.733 36.232C110.839 36.1253 110.85 36.0187 110.765 35.912L105.389 26.856H102.093V36.04C102.093 36.1467 102.178 36.232 102.349 36.296C102.519 36.36 102.679 36.392 102.829 36.392V37H97.0688V36.392C97.2181 36.392 97.3781 36.36 97.5488 36.296C97.7194 36.232 97.8048 36.1467 97.8048 36.04V13.96C97.8048 13.8533 97.7194 13.768 97.5488 13.704C97.3994 13.64 97.2501 13.608 97.1008 13.608V13H106.861C109.677 13 111.799 13.64 113.229 14.92C114.679 16.1787 115.405 17.8107 115.405 19.816C115.405 21.672 114.893 23.1653 113.869 24.296C112.866 25.4267 111.565 26.184 109.965 26.568L115.757 36.168ZM102.093 16.712V22.984H107.341C108.663 22.984 109.655 22.6747 110.317 22.056C110.978 21.4373 111.309 20.6907 111.309 19.816C111.309 18.9627 110.935 18.2373 110.189 17.64C109.442 17.0213 108.525 16.712 107.437 16.712H102.093ZM126.178 21.608C127.821 21.608 129.239 21.9707 130.434 22.696C131.629 23.4 132.535 24.36 133.154 25.576C133.773 26.792 134.082 28.136 134.082 29.608C134.082 30.056 134.05 30.504 133.986 30.952H122.274C122.359 31.976 122.807 32.776 123.618 33.352C124.429 33.928 125.399 34.216 126.53 34.216C127.298 34.216 127.938 34.1093 128.45 33.896C128.983 33.6827 129.453 33.3627 129.858 32.936C129.901 32.8507 129.922 32.7973 129.922 32.776C129.922 32.6907 129.89 32.6053 129.826 32.52C129.762 32.4133 129.698 32.3387 129.634 32.296L130.018 31.816L133.57 34.6L133.218 35.08C132.898 34.888 132.674 34.8667 132.546 35.016C131.053 36.808 129.047 37.704 126.53 37.704C124.909 37.704 123.479 37.352 122.242 36.648C121.005 35.9227 120.045 34.9627 119.362 33.768C118.701 32.552 118.37 31.208 118.37 29.736C118.37 28.1787 118.701 26.7813 119.362 25.544C120.023 24.3067 120.941 23.3467 122.114 22.664C123.309 21.96 124.663 21.608 126.178 21.608ZM130.242 27.976C130.157 27.1013 129.709 26.3653 128.898 25.768C128.109 25.1493 127.213 24.84 126.21 24.84C125.207 24.84 124.343 25.1493 123.618 25.768C122.893 26.3653 122.455 27.1013 122.306 27.976H130.242ZM142.711 37.48C141.623 37.48 140.567 37.256 139.543 36.808C138.541 36.36 137.527 35.72 136.503 34.888C136.461 34.8453 136.407 34.824 136.343 34.824C136.173 34.824 135.991 34.92 135.799 35.112L135.351 34.728L138.551 31.08L138.999 31.496C138.914 31.6027 138.839 31.7307 138.775 31.88C138.733 32.0293 138.754 32.1467 138.839 32.232C139.543 32.872 140.194 33.352 140.791 33.672C141.41 33.9707 142.05 34.12 142.711 34.12C144.354 34.12 145.175 33.576 145.175 32.488C145.175 31.9973 144.919 31.624 144.407 31.368C143.917 31.0907 143.085 30.792 141.911 30.472C140.397 30.0667 139.298 29.544 138.615 28.904C137.933 28.2427 137.591 27.3467 137.591 26.216C137.591 24.872 138.029 23.784 138.903 22.952C139.778 22.0987 140.973 21.672 142.487 21.672C143.255 21.672 143.949 21.7893 144.567 22.024C145.186 22.2587 145.933 22.6747 146.807 23.272C146.829 23.2933 146.871 23.304 146.935 23.304C147.042 23.304 147.149 23.272 147.255 23.208C147.362 23.144 147.437 23.08 147.479 23.016L147.959 23.432L145.079 26.696L144.631 26.312C144.717 26.2267 144.77 26.12 144.791 25.992C144.834 25.8427 144.813 25.7253 144.727 25.64C144.343 25.3413 143.97 25.1173 143.607 24.968C143.266 24.8187 142.882 24.744 142.455 24.744C142.007 24.744 141.655 24.8293 141.399 25C141.143 25.1707 141.015 25.4267 141.015 25.768C141.015 26.0453 141.09 26.2693 141.239 26.44C141.389 26.6107 141.655 26.7813 142.039 26.952C142.445 27.1227 143.053 27.336 143.863 27.592C145.357 28.04 146.53 28.6693 147.383 29.48C148.237 30.2693 148.663 31.2507 148.663 32.424C148.663 34.152 148.119 35.432 147.031 36.264C145.943 37.0747 144.503 37.48 142.711 37.48ZM158.589 37.384C157.01 37.384 155.613 37.0533 154.397 36.392C153.202 35.7093 152.263 34.7813 151.581 33.608C150.919 32.4347 150.589 31.112 150.589 29.64C150.589 28.1893 150.919 26.8667 151.581 25.672C152.263 24.4773 153.213 23.5387 154.429 22.856C155.645 22.152 157.031 21.8 158.589 21.8C160.082 21.8 161.437 22.1413 162.653 22.824C163.869 23.4853 164.829 24.4133 165.533 25.608C166.237 26.7813 166.589 28.1253 166.589 29.64C166.589 30.9627 166.269 32.2213 165.629 33.416C165.01 34.5893 164.093 35.5493 162.877 36.296C161.661 37.0213 160.231 37.384 158.589 37.384ZM158.589 33.704C159.847 33.704 160.861 33.3413 161.629 32.616C162.418 31.8693 162.813 30.9093 162.813 29.736C162.813 28.52 162.418 27.5173 161.629 26.728C160.861 25.9387 159.847 25.544 158.589 25.544C157.415 25.544 156.434 25.9387 155.645 26.728C154.855 27.496 154.461 28.4667 154.461 29.64C154.461 30.8773 154.855 31.8693 155.645 32.616C156.434 33.3413 157.415 33.704 158.589 33.704ZM183.591 36.04C183.591 36.1467 183.665 36.232 183.815 36.296C183.985 36.36 184.145 36.392 184.295 36.392V37H180.327V35.816C179.196 36.7973 177.884 37.288 176.391 37.288C174.151 37.288 172.508 36.648 171.463 35.368C170.417 34.0667 169.895 32.4453 169.895 30.504V23.24C169.895 23.1333 169.809 23.048 169.639 22.984C169.489 22.92 169.34 22.888 169.191 22.888V22.28H174.631V22.888C174.481 22.888 174.321 22.92 174.151 22.984C174.001 23.048 173.927 23.1333 173.927 23.24V30.248C173.927 31.1653 174.161 31.944 174.631 32.584C175.1 33.2027 175.825 33.512 176.807 33.512C177.745 33.512 178.449 33.224 178.919 32.648C179.388 32.072 179.623 31.336 179.623 30.44V23.24C179.623 23.1333 179.537 23.048 179.367 22.984C179.217 22.92 179.068 22.888 178.919 22.888V22.28H184.295V22.888C184.145 22.888 183.985 22.92 183.815 22.984C183.665 23.048 183.591 23.1333 183.591 23.24V36.04ZM197.109 21.32V26.472H196.501C196.501 26.3227 196.469 26.152 196.405 25.96C196.341 25.768 196.256 25.6613 196.149 25.64H195.925C195.264 25.64 194.592 25.832 193.909 26.216C193.248 26.5787 192.693 27.0693 192.245 27.688C191.819 28.2853 191.605 28.9253 191.605 29.608V36.04C191.605 36.1467 191.68 36.232 191.829 36.296C192 36.36 192.16 36.392 192.309 36.392V37H186.933V36.392C187.083 36.392 187.232 36.36 187.381 36.296C187.552 36.232 187.637 36.1467 187.637 36.04V23.24C187.637 23.1333 187.552 23.048 187.381 22.984C187.232 22.92 187.083 22.888 186.933 22.888V22.28H191.605V23.656C192.181 23.1227 192.875 22.696 193.685 22.376C194.496 22.056 195.307 21.896 196.117 21.896H196.149H196.181C196.288 21.896 196.363 21.832 196.405 21.704C196.469 21.576 196.501 21.448 196.501 21.32H197.109ZM206.362 37.672C204.996 37.672 203.727 37.3307 202.554 36.648C201.38 35.9653 200.442 35.0373 199.738 33.864C199.055 32.6907 198.714 31.4107 198.714 30.024C198.714 28.3813 199.055 26.9413 199.738 25.704C200.442 24.4453 201.38 23.4853 202.554 22.824C203.727 22.1413 205.018 21.8 206.426 21.8C207.428 21.8 208.282 21.9173 208.986 22.152C209.711 22.3867 210.287 22.6747 210.714 23.016C211.162 23.336 211.716 23.7947 212.378 24.392C212.42 24.4347 212.474 24.456 212.538 24.456C212.623 24.456 212.719 24.424 212.826 24.36C212.954 24.296 213.05 24.232 213.114 24.168L213.53 24.616L210.074 27.816L209.658 27.368C209.764 27.2827 209.85 27.1653 209.914 27.016C209.999 26.8453 210.01 26.7173 209.946 26.632C209.178 25.6933 208.122 25.224 206.778 25.224C205.562 25.224 204.538 25.6293 203.706 26.44C202.895 27.2507 202.49 28.3067 202.49 29.608C202.49 30.952 202.884 32.0293 203.674 32.84C204.463 33.6507 205.498 34.056 206.778 34.056C207.418 34.056 207.94 33.9813 208.346 33.832C208.751 33.6613 209.21 33.352 209.722 32.904C209.764 32.8613 209.786 32.808 209.786 32.744C209.786 32.616 209.711 32.4773 209.562 32.328L209.946 31.848L213.402 34.728L213.018 35.176C212.676 34.984 212.442 34.952 212.314 35.08C211.524 35.9547 210.692 36.6053 209.818 37.032C208.964 37.4587 207.812 37.672 206.362 37.672ZM222.928 21.608C224.571 21.608 225.989 21.9707 227.184 22.696C228.379 23.4 229.285 24.36 229.904 25.576C230.523 26.792 230.832 28.136 230.832 29.608C230.832 30.056 230.8 30.504 230.736 30.952H219.024C219.109 31.976 219.557 32.776 220.368 33.352C221.179 33.928 222.149 34.216 223.28 34.216C224.048 34.216 224.688 34.1093 225.2 33.896C225.733 33.6827 226.203 33.3627 226.608 32.936C226.651 32.8507 226.672 32.7973 226.672 32.776C226.672 32.6907 226.64 32.6053 226.576 32.52C226.512 32.4133 226.448 32.3387 226.384 32.296L226.768 31.816L230.32 34.6L229.968 35.08C229.648 34.888 229.424 34.8667 229.296 35.016C227.803 36.808 225.797 37.704 223.28 37.704C221.659 37.704 220.229 37.352 218.992 36.648C217.755 35.9227 216.795 34.9627 216.112 33.768C215.451 32.552 215.12 31.208 215.12 29.736C215.12 28.1787 215.451 26.7813 216.112 25.544C216.773 24.3067 217.691 23.3467 218.864 22.664C220.059 21.96 221.413 21.608 222.928 21.608ZM226.992 27.976C226.907 27.1013 226.459 26.3653 225.648 25.768C224.859 25.1493 223.963 24.84 222.96 24.84C221.957 24.84 221.093 25.1493 220.368 25.768C219.643 26.3653 219.205 27.1013 219.056 27.976H226.992Z" fill="white"/>
<path d="M2.384 79L14.768 46.024H25.088L37.472 79H28.304L26.336 73.288H13.184L11.216 79H2.384ZM15.248 66.856H24.224L21.872 59.896C21.744 59.544 21.584 59.112 21.392 58.6C21.232 58.056 21.056 57.496 20.864 56.92C20.704 56.312 20.544 55.704 20.384 55.096C20.224 54.488 20.064 53.96 19.904 53.512H19.568C19.44 54.12 19.248 54.808 18.992 55.576C18.768 56.344 18.528 57.112 18.272 57.88C18.048 58.648 17.84 59.32 17.648 59.896L15.248 66.856ZM52.7405 79.576C49.9565 79.576 47.5885 79.096 45.6365 78.136C43.6845 77.176 42.1805 75.72 41.1245 73.768C40.1005 71.784 39.5885 69.304 39.5885 66.328C39.5885 63.352 40.1165 60.888 41.1725 58.936C42.2285 56.952 43.7325 55.48 45.6845 54.52C47.6365 53.56 49.9885 53.08 52.7405 53.08C54.5325 53.08 56.1805 53.288 57.6845 53.704C59.2205 54.12 60.5485 54.76 61.6685 55.624C62.8205 56.488 63.7005 57.576 64.3085 58.888C64.9165 60.2 65.2205 61.768 65.2205 63.592H57.4925C57.4925 62.504 57.3005 61.608 56.9165 60.904C56.5645 60.2 56.0365 59.672 55.3325 59.32C54.6285 58.968 53.7485 58.792 52.6925 58.792C51.4765 58.792 50.4845 59.048 49.7165 59.56C48.9805 60.072 48.4365 60.824 48.0845 61.816C47.7325 62.808 47.5565 64.04 47.5565 65.512V67.24C47.5565 68.68 47.7325 69.896 48.0845 70.888C48.4365 71.88 49.0125 72.632 49.8125 73.144C50.6125 73.624 51.6365 73.864 52.8845 73.864C53.9725 73.864 54.8685 73.704 55.5725 73.384C56.3085 73.032 56.8685 72.504 57.2525 71.8C57.6365 71.064 57.8285 70.152 57.8285 69.064H65.2205C65.2205 70.824 64.9165 72.376 64.3085 73.72C63.7005 75.032 62.8365 76.12 61.7165 76.984C60.5965 77.848 59.2685 78.504 57.7325 78.952C56.1965 79.368 54.5325 79.576 52.7405 79.576ZM77.2351 79.576C76.1791 79.576 75.1391 79.464 74.1151 79.24C73.1231 79.048 72.2111 78.696 71.3791 78.184C70.5791 77.64 69.9391 76.904 69.4591 75.976C68.9791 75.048 68.7391 73.88 68.7391 72.472C68.7391 70.648 69.1231 69.16 69.8911 68.008C70.6591 66.856 71.7631 65.96 73.2031 65.32C74.6751 64.648 76.4351 64.184 78.4831 63.928C80.5631 63.672 82.8831 63.544 85.4431 63.544V61.96C85.4431 61.224 85.2991 60.616 85.0111 60.136C84.7231 59.624 84.2911 59.24 83.7151 58.984C83.1711 58.696 82.4351 58.552 81.5071 58.552C80.6751 58.552 79.9391 58.648 79.2991 58.84C78.6911 59.032 78.2271 59.32 77.9071 59.704C77.5871 60.056 77.4271 60.488 77.4271 61V61.432H69.7471C69.7151 61.272 69.6991 61.144 69.6991 61.048C69.6991 60.92 69.6991 60.76 69.6991 60.568C69.6991 59.064 70.1631 57.752 71.0911 56.632C72.0511 55.512 73.4111 54.648 75.1711 54.04C76.9311 53.432 79.0591 53.128 81.5551 53.128C83.8911 53.128 85.9231 53.416 87.6511 53.992C89.4111 54.568 90.7871 55.448 91.7791 56.632C92.8031 57.816 93.3151 59.368 93.3151 61.288V72.088C93.3151 72.632 93.4591 73.064 93.7471 73.384C94.0671 73.704 94.4511 73.864 94.8991 73.864H96.5311V78.712C96.1791 78.872 95.6191 79.048 94.8511 79.24C94.1151 79.464 93.2191 79.576 92.1631 79.576C91.0751 79.576 90.1151 79.432 89.2831 79.144C88.4831 78.888 87.8111 78.52 87.2671 78.04C86.7551 77.528 86.4031 76.936 86.2111 76.264H85.8751C85.2671 76.904 84.5471 77.48 83.7151 77.992C82.9151 78.504 81.9711 78.888 80.8831 79.144C79.8271 79.432 78.6111 79.576 77.2351 79.576ZM80.1631 74.152C80.9311 74.152 81.6351 74.04 82.2751 73.816C82.9151 73.592 83.4591 73.288 83.9071 72.904C84.3871 72.488 84.7551 71.992 85.0111 71.416C85.2991 70.84 85.4431 70.216 85.4431 69.544V67.864C83.6191 67.864 82.0511 67.992 80.7391 68.248C79.4271 68.504 78.4191 68.904 77.7151 69.448C77.0111 69.992 76.6591 70.68 76.6591 71.512C76.6591 72.12 76.8031 72.632 77.0911 73.048C77.4111 73.432 77.8271 73.72 78.3391 73.912C78.8511 74.072 79.4591 74.152 80.1631 74.152ZM108.973 79.576C106.829 79.576 104.973 79.096 103.405 78.136C101.837 77.176 100.637 75.72 99.8053 73.768C98.9733 71.816 98.5573 69.32 98.5573 66.28C98.5573 63.304 98.9733 60.856 99.8053 58.936C100.669 56.984 101.869 55.528 103.405 54.568C104.941 53.608 106.749 53.128 108.829 53.128C109.821 53.128 110.765 53.24 111.661 53.464C112.589 53.688 113.405 54.04 114.109 54.52C114.845 55 115.469 55.592 115.981 56.296H116.269V44.248H124.141V79H117.709L117.133 75.496H116.797C115.933 76.872 114.829 77.896 113.485 78.568C112.141 79.24 110.637 79.576 108.973 79.576ZM111.421 73.432C112.573 73.432 113.501 73.176 114.205 72.664C114.941 72.12 115.469 71.368 115.789 70.408C116.141 69.416 116.317 68.264 116.317 66.952V65.8C116.317 64.84 116.221 63.96 116.029 63.16C115.837 62.36 115.549 61.672 115.165 61.096C114.781 60.52 114.269 60.072 113.629 59.752C113.021 59.432 112.285 59.272 111.421 59.272C110.237 59.272 109.277 59.512 108.541 59.992C107.837 60.472 107.325 61.176 107.005 62.104C106.685 63.032 106.525 64.184 106.525 65.56V67.24C106.525 68.584 106.685 69.72 107.005 70.648C107.325 71.576 107.837 72.28 108.541 72.76C109.277 73.208 110.237 73.432 111.421 73.432ZM142.516 79.576C139.636 79.576 137.188 79.112 135.172 78.184C133.156 77.224 131.604 75.768 130.516 73.816C129.46 71.864 128.932 69.368 128.932 66.328C128.932 63.352 129.46 60.888 130.516 58.936C131.572 56.984 133.092 55.528 135.076 54.568C137.06 53.608 139.444 53.128 142.228 53.128C144.98 53.128 147.3 53.592 149.188 54.52C151.108 55.448 152.564 56.872 153.556 58.792C154.548 60.712 155.044 63.192 155.044 66.232V67.912H136.9C136.9 69.256 137.092 70.392 137.476 71.32C137.86 72.248 138.452 72.952 139.252 73.432C140.052 73.912 141.124 74.152 142.468 74.152C143.268 74.152 143.972 74.056 144.58 73.864C145.188 73.672 145.7 73.4 146.116 73.048C146.532 72.664 146.852 72.216 147.076 71.704C147.3 71.192 147.412 70.616 147.412 69.976H155.044C155.044 71.512 154.756 72.888 154.18 74.104C153.636 75.288 152.82 76.296 151.732 77.128C150.644 77.928 149.316 78.536 147.748 78.952C146.212 79.368 144.468 79.576 142.516 79.576ZM136.948 63.544H147.028C147.028 62.712 146.916 61.992 146.692 61.384C146.5 60.744 146.196 60.216 145.78 59.8C145.396 59.384 144.916 59.08 144.34 58.888C143.796 58.664 143.156 58.552 142.42 58.552C141.268 58.552 140.308 58.744 139.54 59.128C138.772 59.512 138.18 60.072 137.764 60.808C137.348 61.544 137.076 62.456 136.948 63.544ZM159.851 79V53.704H166.331L166.907 57.304H167.243C167.819 56.44 168.507 55.688 169.307 55.048C170.139 54.408 171.051 53.928 172.043 53.608C173.035 53.288 174.091 53.128 175.211 53.128C176.939 53.128 178.411 53.48 179.627 54.184C180.843 54.856 181.771 55.896 182.411 57.304H182.747C183.323 56.44 184.011 55.688 184.811 55.048C185.643 54.408 186.555 53.928 187.547 53.608C188.571 53.288 189.627 53.128 190.715 53.128C192.475 53.128 193.963 53.464 195.179 54.136C196.395 54.776 197.323 55.768 197.963 57.112C198.635 58.424 198.971 60.104 198.971 62.152V79H191.099V63.352C191.099 62.648 191.019 62.056 190.859 61.576C190.699 61.064 190.475 60.648 190.187 60.328C189.899 59.976 189.531 59.72 189.083 59.56C188.635 59.4 188.155 59.32 187.643 59.32C186.811 59.32 186.059 59.544 185.387 59.992C184.747 60.408 184.251 60.984 183.899 61.72C183.547 62.424 183.371 63.256 183.371 64.216V79H175.499V63.352C175.499 62.648 175.419 62.056 175.259 61.576C175.099 61.064 174.875 60.648 174.587 60.328C174.299 59.976 173.931 59.72 173.483 59.56C173.035 59.4 172.555 59.32 172.043 59.32C171.211 59.32 170.459 59.544 169.787 59.992C169.147 60.408 168.635 60.984 168.251 61.72C167.899 62.424 167.723 63.256 167.723 64.216V79H159.851ZM208.836 88.456C207.684 88.456 206.676 88.36 205.812 88.168C204.948 88.008 204.34 87.864 203.988 87.736V82.744H207.3C208.196 82.744 208.964 82.536 209.604 82.12C210.244 81.736 210.74 81.256 211.092 80.68C211.476 80.136 211.748 79.576 211.908 79L201.924 53.704H210.324L214.068 64.792C214.26 65.304 214.468 65.976 214.692 66.808C214.948 67.608 215.188 68.44 215.412 69.304C215.668 70.136 215.876 70.888 216.036 71.56H216.324C216.452 71.112 216.596 70.6 216.756 70.024C216.916 69.416 217.076 68.808 217.236 68.2C217.396 67.56 217.556 66.952 217.716 66.376C217.908 65.8 218.068 65.288 218.196 64.84L221.412 53.704H229.236L220.5 77.992C219.956 79.464 219.348 80.84 218.676 82.12C218.036 83.4 217.268 84.504 216.372 85.432C215.476 86.392 214.404 87.128 213.156 87.64C211.94 88.184 210.5 88.456 208.836 88.456Z" fill="#539EF6"/>
</svg>
